<svg width="35" height="36" viewBox="0 0 35 36" fill="none" xmlns="http://www.w3.org/2000/svg">
<g id="office-logo">
<g id="Group" opacity="0.2">
<path id="Vector" d="M10.8828 27.5546C9.89841 27.5546 9.13278 28.3982 9.13278 29.3541C9.13278 29.9727 9.46091 30.5913 10.0078 30.9287L16.2422 34.5277C16.7343 34.8088 17.3359 34.9775 17.9375 34.9775C18.2656 34.9775 18.5937 34.9213 18.8672 34.8651L28.2187 32.1096C29.6406 31.6597 30.625 30.3101 30.625 28.7918V27.5546H10.8828Z" fill="white"/>
</g>
<g id="Group_2" opacity="0.12">
<path id="Vector_2" d="M10.8828 27.5546C9.89841 27.5546 9.13278 28.3982 9.13278 29.3541C9.13278 29.9727 9.46091 30.5913 10.0078 30.9287L16.2422 34.5277C16.7343 34.8088 17.3359 34.9775 17.9375 34.9775C18.2656 34.9775 18.5937 34.9213 18.8672 34.8651L28.2187 32.1096C29.6406 31.6597 30.625 30.3101 30.625 28.7918V27.5546H10.8828Z" fill="white"/>
</g>
<g id="Group_3">
<path id="Vector_3" d="M18.8125 1.12468L21.3282 7.02925V27.5546L18.8672 34.8651L28.2188 32.1096C29.6407 31.6597 30.625 30.3101 30.625 28.7918V7.14171C30.625 5.6234 29.6407 4.27378 28.2188 3.82391L18.8125 1.12468Z" fill="url(#paint0_linear_2_13)"/>
<path id="Vector_4" d="M6.94531 27.3297L9.67969 25.8114C10.4453 25.3615 10.9375 24.5742 10.9375 23.6745V12.5964C10.9375 11.5842 11.5938 10.6282 12.5234 10.2908L21.3281 7.02925V4.55495C21.3281 2.9804 20.2891 1.57455 18.8125 1.12468C18.4844 1.01221 18.2109 1.01221 17.8828 1.01221C17.2813 1.01221 16.6797 1.18091 16.1875 1.46208L6.07031 7.36665C5.03125 7.98522 4.375 9.1099 4.375 10.3471V25.7552C4.375 26.7674 5.14063 27.5546 6.125 27.5546C6.39844 27.5546 6.72656 27.4984 6.94531 27.3297Z" fill="url(#paint1_linear_2_13)"/>
<path id="Vector_5" d="M21.3281 27.5546H10.8828C9.89841 27.5546 9.13278 28.3982 9.13278 29.3541C9.13278 29.9727 9.46091 30.5913 10.0078 30.9287L16.2422 34.5277C16.7343 34.8088 17.3359 34.9775 17.9375 34.9775C18.2656 34.9775 18.5937 34.9213 18.8672 34.8651C20.3437 34.4152 21.3281 33.0656 21.3281 31.491V27.5546Z" fill="url(#paint2_linear_2_13)"/>
<path id="Vector_6" d="M6.94531 27.3297L9.67969 25.8114C10.4453 25.3615 10.9375 24.5742 10.9375 23.6745V12.5964C10.9375 11.5842 11.5938 10.6282 12.5234 10.2908L21.3281 7.02925V4.55495C21.3281 2.9804 20.2891 1.57455 18.8125 1.12468C18.4844 1.01221 18.2109 1.01221 17.8828 1.01221C17.2813 1.01221 16.6797 1.18091 16.1875 1.46208L6.07031 7.36665C5.03125 7.98522 4.375 9.1099 4.375 10.3471V25.7552C4.375 26.7674 5.14063 27.5546 6.125 27.5546C6.39844 27.5546 6.72656 27.4984 6.94531 27.3297Z" fill="url(#paint3_linear_2_13)"/>
<path id="Vector_7" d="M21.3281 27.5546H10.8828C9.89841 27.5546 9.13278 28.3982 9.13278 29.3541C9.13278 29.9727 9.46091 30.5913 10.0078 30.9287L16.2422 34.5277C16.7343 34.8088 17.3359 34.9775 17.9375 34.9775C18.2656 34.9775 18.5937 34.9213 18.8672 34.8651C20.3437 34.4152 21.3281 33.0656 21.3281 31.491V27.5546Z" fill="url(#paint4_linear_2_13)"/>
</g>
</g>
<defs>
<linearGradient id="paint0_linear_2_13" x1="24.7188" y1="-0.794839" x2="24.7188" y2="136.312" gradientUnits="userSpaceOnUse">
<stop stop-color="#FFB900"/>
<stop offset="0.17" stop-color="#EF8400"/>
<stop offset="0.31" stop-color="#E25C01"/>
<stop offset="0.43" stop-color="#DB4401"/>
<stop offset="0.5" stop-color="#D83B01"/>
<stop offset="1" stop-color="#D83B01"/>
</linearGradient>
<linearGradient id="paint1_linear_2_13" x1="18.8884" y1="0.375744" x2="-54.3869" y2="102.131" gradientUnits="userSpaceOnUse">
<stop stop-color="#800600"/>
<stop offset="0.6" stop-color="#C72127"/>
<stop offset="0.73" stop-color="#C13959"/>
<stop offset="0.85" stop-color="#BC4B81"/>
<stop offset="0.94" stop-color="#B95799"/>
<stop offset="1" stop-color="#B85BA2"/>
</linearGradient>
<linearGradient id="paint2_linear_2_13" x1="10.1179" y1="31.281" x2="102.296" y2="31.281" gradientUnits="userSpaceOnUse">
<stop stop-color="#F32B44"/>
<stop offset="0.6" stop-color="#A4070A"/>
<stop offset="1" stop-color="#A4070A"/>
</linearGradient>
<linearGradient id="paint3_linear_2_13" x1="19.2284" y1="-0.133673" x2="3.71354" y2="21.4079" gradientUnits="userSpaceOnUse">
<stop stop-opacity="0.4"/>
<stop offset="1" stop-opacity="0"/>
</linearGradient>
<linearGradient id="paint4_linear_2_13" x1="25.3287" y1="31.799" x2="-15.959" y2="28.2941" gradientUnits="userSpaceOnUse">
<stop stop-opacity="0.4"/>
<stop offset="1" stop-opacity="0"/>
</linearGradient>
</defs>
</svg>
