<svg width="35" height="36" viewBox="0 0 35 36" fill="none" xmlns="http://www.w3.org/2000/svg">
<g id="xbox-logo">
<path id="Vector" d="M17.4942 5.71222C17.8082 5.52616 22.1575 3.06075 25.3672 3.06075C26.065 3.03749 26.7511 3.2003 27.3558 3.54918C21.4132 -0.509435 13.5868 -0.509435 7.63257 3.54918C8.23729 3.21193 8.92342 3.03749 9.62117 3.06075C12.8308 3.04912 17.1802 5.52616 17.4942 5.71222Z" fill="#fff"/>
<path id="Vector_2" d="M12.7378 10.2011C12.7378 10.2011 8.14425 5.3866 5.73699 5.44475C5.5393 5.43312 5.35323 5.47964 5.17879 5.56104C-1.19405 11.8757 -1.75225 21.9932 3.87631 28.9708C3.65535 28.4358 3.52743 27.8776 3.52743 27.2961C3.5158 25.2029 5.24857 19.6092 12.7378 10.2011Z" fill="#fff"/>
<path id="Vector_3" d="M29.2514 5.44475C26.8441 5.37498 22.2505 10.1895 22.2505 10.1895C29.7282 19.5976 31.4726 25.1912 31.4726 27.2961C31.4609 27.866 31.3446 28.4358 31.1237 28.9708C36.7522 21.9816 36.194 11.8757 29.8212 5.56104C29.6468 5.46801 29.4491 5.43312 29.2514 5.44475Z" fill="#fff"/>
<path id="Vector_4" d="M29.5188 29.6453C28.8095 23.819 18.0059 14.8877 17.4942 14.4807C16.9825 14.8993 6.1789 23.8306 5.46952 29.6453C5.423 30.1802 5.58581 30.7151 5.93469 31.1338C12.5401 36.9484 22.4366 36.9484 29.0537 31.1338C29.3909 30.7268 29.5654 30.1918 29.5188 29.6453Z" fill="#fff"/>
</g>
</svg>
