<?xml version="1.0" encoding="UTF-8"?><svg id="Layer_1" xmlns="http://www.w3.org/2000/svg" viewBox="0 0 200 100"><g id="Forza_Motorsport"><path d="m105.11,63.45h-3.31l-5.59-4.56h4c.82,0,1.8-.12,1.8-1.35v-.14c0-1.24-.98-1.35-1.8-1.35h-4.37v7.4h-2.43v-9.44h7.47c1.96,0,3.56,1.32,3.56,3.29,0,1.8-1.33,3.05-3.06,3.26l3.74,2.89Zm-23.65.13c2.03,0,3.53-.41,4.49-1.23.96-.82,1.44-2.03,1.44-3.63s-.48-2.79-1.44-3.61c-.96-.82-2.46-1.23-4.49-1.23s-3.54.41-4.5,1.22c-.96.81-1.44,2.02-1.44,3.62s.48,2.82,1.44,3.64c.96.82,2.46,1.23,4.5,1.23Zm0-2.04c-1.25,0-2.15-.23-2.69-.68-.54-.45-.82-1.17-.82-2.15s.27-1.69.82-2.14c.54-.44,1.44-.67,2.69-.67s2.15.22,2.69.67c.54.45.82,1.16.82,2.13s-.27,1.7-.82,2.15c-.55.45-1.44.68-2.68.68Zm55.46,1.9h2.68l-4.88-9.44h-3.28l-4.87,9.44h2.67l1.01-2.01h5.65l1.01,2.01Zm-5.76-3.81l1.93-3.83,1.91,3.83h-3.84Zm-68.35-3.59h7.07l1.37-2.04h-10.87v9.44h2.43v-2.95h6.7v-2.05h-6.7v-2.4Zm58.69-2.04h-9.52l-1.37,2.04h6.25l-6.25,7.4h10.71v-2.04h-6.06l6.25-7.4Z" style="fill:#fff; stroke-width:0px;"/><path d="m67.4,26.96l-.32.47,24.97,4.34-5.8,8.6,8.96-1.1,8.31-12.31h-36.11Zm49.36,0l-7.11,10.54,5.78-.71c2.03-.25,3.86-1.37,5-3.07l4.56-6.76h-8.24Zm-10.75,0l-8.08,11.98,8.99-1.1,7.34-10.87h-8.24Zm-23.82-5.27l-2.16,3.2h43.05c4.71,0,9.1-2.34,11.73-6.24l2.16-3.2h-43.05c-4.71,0-9.1,2.34-11.73,6.24Zm-2.13,24.14l-15.43,1.89,11.23-16.65,12.67,2.2-8.47,12.56Z" style="fill:#fff; stroke-width:0px;"/><path d="m62.12,77.17c0,4.08-3.3,7.38-7.38,7.38s-7.38-3.3-7.38-7.38,3.3-7.38,7.38-7.38,7.38,3.31,7.38,7.38Zm-7.37-4.91c-2.71,0-4.91,2.2-4.91,4.91s2.2,4.91,4.91,4.91,4.91-2.2,4.91-4.91-2.2-4.91-4.91-4.91Zm33.09,4.91c0,4.08-3.3,7.38-7.38,7.38s-7.38-3.3-7.38-7.38,3.3-7.38,7.38-7.38,7.38,3.31,7.38,7.38Zm-7.38-4.91c-2.71,0-4.91,2.2-4.91,4.91s2.2,4.91,4.91,4.91,4.91-2.2,4.91-4.91c0-2.71-2.19-4.91-4.91-4.91Zm63.41,4.91c0,4.08-3.3,7.38-7.38,7.38s-7.38-3.3-7.38-7.38,3.3-7.38,7.38-7.38,7.38,3.31,7.38,7.38Zm-7.38-4.91c-2.71,0-4.91,2.2-4.91,4.91s2.2,4.91,4.91,4.91,4.91-2.2,4.91-4.91-2.19-4.91-4.91-4.91Zm14.88,4.8h-3.14l4.95,7.34h2.96l-3.43-5.08c1.99-.59,3.44-2.42,3.44-4.6,0-2.65-2.15-4.8-4.8-4.8h-7.95l1.66,2.46h6.29c1.29,0,2.33,1.04,2.33,2.33.01,1.3-1.03,2.34-2.32,2.34Zm-4.61,0h-1.49l4.95,7.34h1.49l-4.95-7.34Zm-51.41,0h-3.14l4.95,7.34h2.96l-3.43-5.08c1.99-.59,3.44-2.42,3.44-4.6,0-2.65-2.15-4.8-4.8-4.8h-7.95l1.66,2.46h6.29c1.29,0,2.33,1.04,2.33,2.33s-1.03,2.34-2.32,2.34Zm-4.62,0h-1.49l4.95,7.34h1.49l-4.95-7.34Zm-29.33-7.12l1.66,2.46h3.33v12.02h2.46v-12.03h3.33l1.66-2.46h-12.45Zm61.69,0h-7.3v14.47h2.46v-4.89h4.83c2.65,0,4.8-2.15,4.8-4.8s-2.15-4.79-4.8-4.79Zm0,7.12h-4.83v-4.67h4.83c1.29,0,2.33,1.04,2.33,2.33s-1.04,2.33-2.33,2.33Zm33.35-7.12l1.66,2.46h3.33v12.02h2.46v-12.03h3.33l1.66-2.46h-12.45Zm-125.31,4.26l6.89,10.22,4.43-6.57v6.57h2.46v-14.62l-6.89,10.22-6.89-10.22v4.41Zm0,4.4l3.93,5.82h1.49l-5.42-8.02v2.2Zm0,2.2v3.62h2.44l-2.44-3.62Zm78.28-4.85h-3.62c-.98,0-1.77-.79-1.77-1.77s.79-1.77,1.77-1.77h7.23v-2.46h-7.22c-2.33,0-4.23,1.9-4.23,4.23s1.9,4.23,4.23,4.23h3.62c.98,0,1.77.79,1.77,1.77s-.79,1.77-1.77,1.77h-7.97l1.66,2.46h6.31c2.33,0,4.23-1.9,4.23-4.23-.01-2.34-1.9-4.23-4.24-4.23Z" style="fill:#fff; stroke-width:0px;"/></g></svg>