<?xml version="1.0" encoding="UTF-8"?><svg id="Layer_1" xmlns="http://www.w3.org/2000/svg" viewBox="0 0 200 100"><path d="m53.73,46.31c.01-2.35,0-4.69,0-7.04,0-1.06,0-2.11,0-3.17,0-.97.42-1.42,1.37-1.52.09,0,.19,0,.28-.02.06-.01.13-.05.12-.14,0-.1-.09-.1-.15-.11-.12-.02-.23-.01-.35-.01-1.78,0-3.57,0-5.35,0-.12,0-.23,0-.35.02-.03,0-.08.05-.09.08-.03.08.03.13.09.16.06.02.14.02.21.02,1.1.11,1.49.52,1.49,1.62,0,2.67,0,5.35,0,8.02,0,.18.1.44-.09.52-.22.09-.35-.17-.5-.3-2.43-2.18-4.85-4.36-7.28-6.54-1.36-1.22-2.72-2.45-4.08-3.67-.13-.12-.26-.36-.45-.27-.24.11-.1.38-.08.56.13.96.17,1.91.17,2.88,0,2.79,0,5.58,0,8.38,0,.77.02,1.55,0,2.32-.02.71-.46,1.18-1.16,1.28-.16.02-.33.02-.49.04-.04,0-.08.05-.09.09-.02.08.04.14.11.15.14.02.28.02.42.02,1.74,0,3.47,0,5.21,0,.12,0,.23,0,.35,0,.09,0,.21-.02.19-.14-.01-.11-.12-.12-.22-.13-.02,0-.05,0-.07,0-1.12-.14-1.48-.52-1.48-1.63,0-1.31,0-2.63,0-3.94h0c0-1.34,0-2.67,0-4.01,0-.22-.12-.55.1-.64.21-.09.38.21.54.36,3.72,3.34,7.43,6.69,11.14,10.03.12.11.24.22.37.33.07.06.15.12.25.08.15-.07.09-.19.08-.3-.18-1.12-.22-2.24-.21-3.37Z" style="fill:#fff; stroke-width:0px;"/><path d="m176.45,42.34c-.87,0-1.74,0-2.61,0h0c-.82,0-1.64,0-2.47,0-.14,0-.28.02-.42.03-.06,0-.09.04-.07.09.01.04.04.09.07.1.09.03.18.03.27.04.87.11,1.1.35,1.1,1.22,0,.77-.04,1.55-.01,2.32.02.51-.15.91-.46,1.28-.5.58-1.09,1.03-1.82,1.29-1.18.43-2.38.49-3.6.15-1.48-.41-2.46-1.4-3.11-2.76-.57-1.19-.77-2.47-.79-3.76-.03-1.61.16-3.19.94-4.64.75-1.4,1.9-2.31,3.46-2.66,1.07-.24,2.15-.2,3.21.04,1.77.39,2.96,1.45,3.61,3.13.08.22.15.44.23.66.04.1.05.26.22.19.1-.04.08-.16.07-.24-.05-.91-.14-1.83-.13-2.74,0-.67-.26-1.02-.88-1.23-2.75-.94-5.54-1.26-8.38-.53-2.73.71-4.56,2.43-5.31,5.2-.32,1.19-.38,2.41-.23,3.63.39,3.21,2.1,5.38,5.17,6.38,2.28.74,4.58.66,6.85-.09,1.26-.41,2.41-1.04,3.4-1.94.37-.33.57-.69.54-1.22-.04-.89-.01-1.78.02-2.68.02-.67.27-.91.94-1,.07,0,.14,0,.21-.01.09,0,.21-.01.22-.12,0-.18-.15-.14-.25-.14Z" style="fill:#fff; stroke-width:0px;"/><path d="m12.76,41.16c-1.75-1.27-3.47-2.57-5.2-3.86-.38-.28-.72-.6-1.01-.97-.47-.61-.55-1.27-.34-2,.2-.66.63-1.15,1.21-1.49,1.86-1.08,5.17-.35,5.29,2.08,0,.1.04.21.14.21.15,0,.16-.14.17-.25.06-.96.11-1.92.18-2.88.03-.34-.15-.4-.42-.38-.87.06-1.73-.12-2.59-.18-.42-.03-.84-.07-1.26-.1-.5.01-.98.04-1.47.13-1.92.36-3.34,1.66-3.72,3.49-.42,2,.14,3.65,1.83,4.89,1.78,1.31,3.54,2.63,5.3,3.96,1.74,1.32,1.53,3.73-.39,4.77-.57.31-1.19.45-1.83.47-2.38.09-3.97-1.26-4.44-3.13-.09-.37-.1-.74-.11-1.12,0-.11.02-.27-.12-.3-.18-.04-.22.13-.27.26-.23.59-.38,1.21-.44,1.84-.2,1.98-.11,2.22,1.86,2.94,1.59.58,3.26.67,4.93.38,2.82-.49,4.53-2.5,4.5-5.26-.02-1.45-.59-2.62-1.78-3.49Z" style="fill:#fff; stroke-width:0px;"/><path d="m132.36,49.67c1.81-.57,3.03-1.78,3.41-3.68.4-2.02-.04-3.74-1.86-4.99-1.72-1.18-3.36-2.48-5.03-3.73-.34-.25-.64-.54-.91-.87-.56-.69-.63-1.45-.31-2.25.29-.74.85-1.23,1.58-1.51.62-.25,1.27-.31,1.94-.25,1.66.16,2.52.91,2.9,2.54.03.12.04.25.2.23.1-.01.13-.12.13-.22.06-.98.12-1.97.19-2.95.02-.3-.16-.35-.39-.34-.71.03-1.4-.05-2.1-.13-.58-.06-1.16-.16-1.77-.13-.55-.04-1.11,0-1.66.14-1.91.46-3.16,1.62-3.56,3.56-.38,1.88.14,3.49,1.71,4.67,1.78,1.34,3.55,2.7,5.37,3.99,1.93,1.37,1.52,4.06-.55,4.96-.46.2-.94.3-1.43.34-2.47.21-4.54-1.3-4.74-3.91,0-.12,0-.24-.01-.35-.01-.11.04-.26-.13-.27-.14,0-.18.13-.22.24-.3.77-.47,1.57-.51,2.4-.06,1.38.1,1.69,1.37,2.19,2.09.83,4.25,1,6.41.33Z" style="fill:#fff; stroke-width:0px;"/><path d="m75.43,34.31c-.21,0-.42,0-.63,0-1.15,0-2.3,0-3.45,0-.08,0-.2-.03-.23.09-.03.14.09.13.18.15,1.11.23,1.28.43,1.29,1.53,0,2.56,0,5.12,0,7.67,0,.33,0,.66-.02.99-.17,2.45-1.49,3.98-3.75,4.32-2.5.38-4.39-.89-4.99-3.35-.13-.55-.19-1.11-.19-1.67,0-2.67,0-5.35,0-8.02,0-1,.24-1.28,1.22-1.46.09-.02.23-.02.23-.11.02-.17-.15-.14-.25-.14-1.81,0-3.61,0-5.42,0-.1,0-.27-.03-.25.14,0,.09.14.09.23.11.98.17,1.23.46,1.23,1.45,0,1.43,0,2.86,0,4.29h0c0,1.41-.04,2.82,0,4.22.08,2.3,1.15,4,3.32,4.86,2.09.83,4.27.9,6.42.25,1.95-.59,3.15-1.96,3.59-3.97.11-.53.16-1.07.16-1.61,0-2.58,0-5.16,0-7.74,0-.21,0-.42,0-.63.05-.62.38-.99.99-1.1.11-.02.23-.02.35-.03.07-.01.13-.04.13-.13,0-.1-.09-.1-.15-.1Z" style="fill:#fff; stroke-width:0px;"/><path d="m196.61,49.41c-.24,0-.46-.08-.68-.18-.67-.29-1.03-.85-1.32-1.48-2.07-4.44-4.15-8.88-6.23-13.32-.06-.13-.11-.26-.18-.38-.06-.12-.09-.3-.26-.29-.18,0-.18.18-.23.31-.15.42-.29.84-.47,1.25-1.88,4.25-3.89,8.43-5.85,12.64-.38.82-.98,1.36-1.92,1.45-.11.01-.26,0-.23.18.02.11.14.1.23.1,1.48,0,2.96,0,4.43,0,.11,0,.26.02.27-.14,0-.11-.11-.12-.2-.14-.92-.16-1.09-.83-.76-1.58.31-.71.62-1.42.91-2.13.11-.27.25-.41.57-.4,1.67.01,3.33.01,5,0,.31,0,.47.11.58.39.25.63.53,1.25.79,1.88.49,1.17.42,1.35-.77,1.87-.06.03-.13.07-.09.15.02.03.06.07.1.08.14.01.28.02.42.02.94,0,1.88,0,2.82,0,.7,0,1.41,0,2.11,0,.33,0,.66,0,.99,0,.09,0,.2,0,.2-.13,0-.11-.11-.14-.2-.14Zm-7.47-5.08c-1.33,0-2.67,0-4,0-.23,0-.44,0-.29-.34.77-1.78,1.54-3.56,2.32-5.34,0-.01.03-.02.05-.03.1.07.15.17.2.28.69,1.64,1.38,3.28,2.06,4.92.2.49.19.51-.33.51Z" style="fill:#fff; stroke-width:0px;"/><path d="m91.87,49.69c.33,0,.66,0,.99,0,.63,0,1.27,0,1.9,0,.15,0,.4.08.43-.11.04-.24-.23-.15-.36-.18-.5-.1-.93-.32-1.27-.7-.29-.32-.46-.7-.64-1.09-2.06-4.4-4.12-8.79-6.18-13.19-.08-.17-.16-.34-.24-.51-.04-.09-.1-.16-.21-.16-.12,0-.14.1-.17.19-.2.53-.37,1.07-.6,1.58-1.9,4.13-3.82,8.26-5.73,12.39-.39.84-.99,1.42-1.96,1.5-.1,0-.22.03-.22.12-.01.17.14.15.25.15,1.48,0,2.96,0,4.44,0,.11,0,.26,0,.25-.15,0-.09-.13-.1-.22-.13-.88-.27-1.09-.68-.75-1.52.3-.76.64-1.51.96-2.27.09-.22.23-.32.48-.32,1.71,0,3.43,0,5.14,0,.17,0,.32.01.4.2.36.89.77,1.77,1.09,2.67.2.56-.08,1-.66,1.2-.11.04-.23.04-.34.08-.03,0-.05.08-.05.11,0,.03.05.09.08.09.16.02.33.03.49.03.92,0,1.83,0,2.75,0Zm-4.28-5.36c-.68.01-1.36,0-2.03,0-.68,0-1.36,0-2.03,0-.39,0-.42-.06-.29-.4.15-.39.33-.77.49-1.16.55-1.29,1.1-2.58,1.66-3.87.04-.1.07-.26.21-.23.06.01.12.13.15.21.71,1.68,1.42,3.36,2.12,5.04.15.36.11.4-.27.41Z" style="fill:#fff; stroke-width:0px;"/><path d="m156.61,49.68c.16,0,.44.1.46-.14.02-.2-.26-.12-.4-.15-.63-.14-1.12-.47-1.46-1.01-.16-.26-.29-.54-.42-.81-2.04-4.35-4.08-8.71-6.12-13.06-.07-.15-.14-.3-.21-.45-.06-.12-.09-.29-.26-.29-.18,0-.18.17-.23.3-.21.67-.49,1.32-.78,1.96-1.79,3.87-3.6,7.74-5.38,11.62-.44.95-1.01,1.69-2.15,1.77-.06,0-.15.07-.15.11-.02.12.08.15.18.15,1.5,0,3,0,4.51,0,.08,0,.2.02.22-.11.01-.12-.09-.13-.18-.16-.93-.32-1.12-.69-.76-1.57.29-.72.61-1.42.9-2.14.11-.27.25-.41.57-.41,1.67.01,3.33.01,5,0,.31,0,.47.11.58.39.24.61.51,1.21.75,1.82.16.41.43.81.25,1.27-.17.45-.55.61-1,.67-.04,0-.09.06-.09.09,0,.07.04.13.12.14.16.01.33.02.49.02.92,0,1.83,0,2.75,0,.94,0,1.88,0,2.82,0Zm-7.21-5.35c-1.33,0-2.67,0-4,0-.4,0-.42-.03-.26-.4.73-1.72,1.47-3.44,2.21-5.16.03-.06.08-.11.14-.18.07.11.14.21.18.31.69,1.64,1.38,3.27,2.06,4.91.21.5.19.51-.33.51Z" style="fill:#fff; stroke-width:0px;"/><path d="m32.42,45.36c-.14-.06-.19.09-.23.2-.16.39-.34.77-.56,1.13-.75,1.23-1.82,1.94-3.28,1.99-1.05.04-2.11.02-3.17,0-.49,0-.5-.02-.5-.52,0-1.41,0-2.82,0-4.22,0-.38,0-.75,0-1.13,0-.19.07-.32.28-.32,1.1.01,2.21-.03,3.31.05.79.05,1.24.58,1.38,1.37.02.14.04.28.07.41,0,.03.07.05.1.06.05.02.09-.01.1-.07.01-.14.04-.28.04-.42,0-1.24,0-2.49,0-3.73,0-.09,0-.19-.01-.28,0-.09-.02-.2-.15-.19-.07,0-.11.07-.12.14,0,.07-.01.14-.02.21-.18,1.01-.66,1.44-1.66,1.45-.94.01-1.88.01-2.82,0-.49,0-.51-.02-.51-.52,0-1.74,0-3.47,0-5.21,0-.51.02-.52.57-.52,1.13,0,2.25.03,3.38,0,1.52-.05,2.13.79,2.21,1.9,0,.05,0,.09.01.14.01.11.02.25.18.23.13-.01.12-.14.12-.22,0-1.03,0-2.06,0-3.1,0-.26-.11-.31-.35-.25-.98.24-1.98.33-3,.33-2.06-.01-4.13,0-6.19,0-.47,0-.94,0-1.41,0-.1,0-.26-.03-.27.13,0,.16.14.14.25.16,1.1.18,1.42.56,1.42,1.69,0,3.1,0,6.19,0,9.29,0,.8.01,1.6,0,2.39-.02.82-.45,1.3-1.26,1.43-.11.02-.23.03-.34.05-.03,0-.05.07-.06.11-.02.06.01.09.07.1.16.01.33.03.49.03,1.71,0,3.43,0,5.14,0,1.74,0,3.47,0,5.21,0,.57,0,.57,0,.71-.54.26-.98.5-1.95.75-2.93.05-.18.1-.36.14-.54.02-.11.09-.26-.04-.31Z" style="fill:#fff; stroke-width:0px;"/><path d="m108.13,42.01c-1.59-.95-3.08-2.06-4.61-3.1-.29-.2-.57-.42-.79-.69-.59-.72-.57-1.68.07-2.37.39-.43.89-.68,1.45-.81.58-.13,1.16-.14,1.75-.05,1.36.21,1.97.76,2.28,2.1.03.11.04.26.18.25.08,0,.1-.14.11-.23.07-.86.14-1.73.21-2.59.02-.26-.13-.33-.35-.32-1.01.05-2-.23-2.98-.19-.62-.09-1.21-.06-1.79.02-1.8.23-3.21,1.42-3.57,3.04-.42,1.92.26,3.49,1.77,4.45,1.58,1.01,3.1,2.11,4.64,3.18.74.51,1.2,1.19,1.11,2.13-.09.95-.62,1.62-1.5,1.97-2.06.82-5.42.08-5.63-3.31,0-.14.09-.38-.15-.39-.19,0-.22.22-.27.36-.18.49-.31.99-.36,1.5-.17,1.75-.14,1.98,1.58,2.61,1.48.54,3.03.59,4.58.35.92-.14,1.75-.51,2.49-1.08,2.13-1.62,2.19-5.37-.24-6.82Z" style="fill:#fff; stroke-width:0px;"/><path d="m48.19,68.35c-.08-.08-.17-.16-.26-.23-.51-.44-.74-.97-.72-1.67.04-1.64.01-3.29.01-4.93h0c0-1.55,0-3.1,0-4.65,0-1.33,0-1.32-1.36-1.24-.34.02-.46.15-.44.47.01.16,0,.33,0,.49,0,1.5,0,3,0,4.51,0,.56-.01.57-.52.57-1.97,0-3.94,0-5.91,0-.35,0-.5-.11-.49-.48.02-1.01,0-2.02,0-3.03,0-.7,0-1.41,0-2.11,0-.24-.04-.42-.33-.42-.87,0-1.74,0-2.6,0-.07,0-.14.03-.15.11,0,.03.03.09.07.11.07.06.16.1.23.16.67.45,1,1.02.98,1.88-.04,3.1-.02,6.2-.02,9.29,0,.33.01.66,0,.99-.01.29.1.44.4.43.28,0,.56,0,.84,0,.56-.01.57-.02.57-.61,0-1.55,0-3.1,0-4.65,0-.54.01-.55.55-.55,1.92,0,3.85,0,5.77,0,.59,0,.6.01.6.65,0,1.29,0,2.58,0,3.87,0,.39-.17.88.09,1.16.29.32.8.1,1.21.13.44.02.89,0,1.34,0,.06,0,.13-.04.18-.08.07-.08-.02-.13-.06-.17Z" style="fill:#fff; stroke-width:0px;"/><path d="m95.39,61.93c-.08-.05-.16-.09-.25-.13-.16-.08-.2-.18-.06-.32.07-.06.14-.12.2-.19.98-1.06.73-2.79-.52-3.52-.54-.31-1.13-.47-1.74-.49-.89-.03-1.78-.03-2.67-.03-.54,0-.55.01-.55.55,0,1.48,0,2.96,0,4.43,0,1.43,0,2.86,0,4.29,0,.71,0,.71.67.72.87,0,1.74.01,2.6,0,.68-.01,1.35-.11,1.99-.38,1.04-.44,1.67-1.21,1.72-2.36.06-1.13-.4-2-1.4-2.57Zm-.49,2.89c-.23.82-.82,1.31-1.68,1.35-.42.02-.84.01-1.27,0-.58,0-.59-.01-.6-.58,0-1.12,0-2.25,0-3.37,0-1.15,0-2.3,0-3.44,0-.35.11-.52.48-.49.37.02.75,0,1.11.11.62.18,1.02.58,1.15,1.2.13.61-.01,1.17-.5,1.59-.21.18-.46.32-.69.49-.14.1-.21.2.03.26.36.1.71.24,1.03.45.84.54,1.2,1.48.93,2.44Z" style="fill:#fff; stroke-width:0px;"/><path d="m132.15,57.4c-1.6-.3-3.23-.11-4.84-.15-.2,0-.31.09-.31.29,0,.19,0,.38,0,.56,0,2.74,0,5.49,0,8.23,0,.93-.16.89.92.89.61,0,.61-.01.61-.63,0-2.13,0-4.27,0-6.4,0-.52,0-1.03,0-1.55,0-.25.08-.4.36-.39.77.02,1.55-.04,2.32.05,1.43.16,2.44.92,2.91,2.31.8,2.35-.16,4.69-2.37,5.83-.5.26-1.03.42-1.53.65.94.09,1.85,0,2.73-.26,1.62-.49,2.63-1.57,3-3.23.08-.34.12-.7.13-1.05.1-2.82-1.26-4.66-3.92-5.16Z" style="fill:#fff; stroke-width:0px;"/><path d="m123.1,67c-.81-.32-1.31-.91-1.64-1.73-.64-1.61-1.34-3.2-2.01-4.8-.49-1.17-.98-2.33-1.48-3.5-.05-.11-.09-.24-.22-.22-.06.01-.11.14-.16.22-.06.12-.12.26-.17.38-1.15,2.59-2.3,5.18-3.43,7.78-.37.85-.81,1.58-1.76,1.87-.07.02-.13.07-.1.15.02.08.11.07.17.07.66,0,1.31,0,1.97,0,.28,0,.43-.11.53-.36.19-.5.42-.99.6-1.5.12-.34.31-.47.67-.46,1.01.02,2.02.03,3.02,0,.4-.01.59.14.7.51.15.49.37.96.53,1.45.09.26.24.37.52.36.79-.01,1.59,0,2.41,0-.02-.18-.09-.21-.15-.24Zm-4.38-3.08c-.77,0-1.55,0-2.32,0-.19,0-.41,0-.29-.3.48-1.22.97-2.43,1.45-3.65.16.09.21.19.25.31.4,1.05.81,2.1,1.21,3.15.17.46.16.49-.3.5Z" style="fill:#fff; stroke-width:0px;"/><path d="m59.77,65.46c-.55.42-1.13.76-1.85.74-.61-.01-1.22,0-1.83,0-.5,0-.52-.02-.52-.51,0-.8,0-1.6,0-2.39,0-.54.01-.55.54-.56.14,0,.29-.02.42,0,.75.14,1.3-.25,1.82-.7.06-.06.18-.11.11-.22-.03-.04-.12-.06-.19-.06-.75,0-1.5-.01-2.25,0-.32,0-.47-.11-.46-.45.02-.7,0-1.41,0-2.11,0-1.04-.13-.94.93-.94.99,0,1.97,0,2.96,0,.16,0,.34.04.44-.14.22-.4-.03-.86-.48-.86-1.62,0-3.24,0-4.86,0-.51,0-.52.02-.52.58,0,2.93,0,5.86,0,8.8,0,.57.01.58.59.59,1.31,0,2.63,0,3.94,0,.42,0,.91.11,1.25-.07.39-.19.41-.76.57-1.17.22-.55.5-1.09.59-1.71-.4.41-.76.84-1.21,1.18Z" style="fill:#fff; stroke-width:0px;"/><path d="m146.6,65.25c-.72.62-1.49,1.04-2.48.96-.44-.04-.89,0-1.34,0-.64,0-.64,0-.64-.67,0-.66,0-1.31,0-1.97,0-.91-.06-.87.84-.81.76.05,1.37-.17,1.9-.69.06-.06.18-.1.14-.21-.04-.11-.15-.09-.24-.09-.73,0-1.45-.01-2.18,0-.33,0-.47-.12-.46-.45.01-.68,0-1.36,0-2.04.01-1.18-.13-1,1-1.01.96,0,1.92,0,2.89,0,.16,0,.33.04.43-.15.22-.43-.02-.85-.49-.85-1.59,0-3.19,0-4.78,0-.56,0-.57.01-.57.6,0,1.85,0,3.71,0,5.56,0,1.06,0,2.11,0,3.17,0,.63,0,.63.61.64.61,0,1.22,0,1.83,0,.99,0,1.97,0,2.96,0,.21,0,.45.04.54-.21.32-.89.79-1.73.97-2.67-.4.2-.6.62-.93.9Z" style="fill:#fff; stroke-width:0px;"/><path d="m147.53,64.35s.01,0,.02-.01l-.02-.02s0,.02,0,.03Z" style="fill:#fff; stroke-width:0px;"/><path d="m157.34,55.78s-.08-.09-.12-.13c-1.03,0-2.06,0-3.09,0-.11,0-.26-.03-.28.12,0,.06.1.15.17.2.65.46.88,1.07.87,1.87-.04,2.93-.03,5.87,0,8.8,0,.65-.11,1.21-.64,1.62-.07.05-.17.11-.15.21.02.12.14.11.23.11.91,0,1.83,0,2.74,0,.09,0,.2.02.24-.1.04-.11-.06-.17-.13-.22-.53-.45-.66-1.01-.65-1.69.03-2.91.03-5.82,0-8.73,0-.8.04-1.55.81-2.07Z" style="fill:#fff; stroke-width:0px;"/><path d="m165.56,68.26c-.52-.45-.68-1.01-.66-1.69.04-1.48.01-2.95.01-4.43,0-1.5.01-3,0-4.5,0-.66.1-1.26.64-1.71.05-.04.11-.12.1-.17-.02-.1-.13-.11-.22-.11-1.01,0-2.02,0-3.02,0-.06,0-.15.02-.18.06-.08.11.03.17.1.21.81.52.98,1.28.96,2.19-.04,2.81-.03,5.62,0,8.44,0,.7-.12,1.3-.7,1.74-.06.05-.17.1-.13.22.04.11.15.09.24.09.91,0,1.83,0,2.74,0,.09,0,.22-.01.26-.07.09-.13-.05-.21-.13-.27Z" style="fill:#fff; stroke-width:0px;"/><path d="m72.1,65.6c-.41.28-.83.56-1.34.57-.75.03-1.5.01-2.25.02-.31,0-.41-.15-.39-.44,0-.16,0-.33,0-.49,0-2.32,0-4.64,0-6.96q0-1.15-1.17-1.05s-.05,0-.07,0c-.24,0-.33.13-.32.36,0,.09,0,.19,0,.28,0,2.91,0,5.81,0,8.72,0,.59,0,.61.49.61,1.66,0,3.33,0,4.99,0,.26,0,.44-.06.54-.33.31-.83.63-1.66.94-2.48-.04-.02-.08-.05-.12-.07-.4.46-.81.91-1.31,1.25Z" style="fill:#fff; stroke-width:0px;"/><path d="m107.75,65.59c-.35.24-.7.49-1.13.55-.86.13-1.73.05-2.6.05-.21,0-.28-.13-.28-.32,0-.16,0-.33,0-.49,0-2.39,0-4.78,0-7.18,0-1.05.15-.94-.93-.94-.63,0-.63,0-.63.68,0,2.86,0,5.72,0,8.58,0,.09,0,.19,0,.28-.03.3.11.42.4.42,1.71,0,3.42,0,5.14,0,.2,0,.37-.04.45-.25.33-.85.65-1.69.98-2.54-.05-.02-.09-.04-.14-.06-.39.44-.79.87-1.27,1.21Z" style="fill:#fff; stroke-width:0px;"/><path d="m82.39,66.18c-.75.03-1.5.01-2.25.02-.26,0-.39-.1-.38-.37,0-.19,0-.38,0-.56,0-2.35,0-4.69,0-7.04,0-1.06.16-.96-.98-.96-.57,0-.58,0-.58.59,0,2.93,0,5.87,0,8.8,0,.07,0,.14,0,.21-.01.28.14.37.39.36,1.71,0,3.43,0,5.14,0,.2,0,.36-.04.45-.26.32-.85.65-1.69.98-2.54-.5.3-.82.73-1.26,1.05-.46.33-.92.67-1.51.7Z" style="fill:#fff; stroke-width:0px;"/><path d="m92.33,33.32c.4.22.43.51.37.88-.05.32-.13.63-.22,1.09.68-.58,1.1-1.18,1.31-1.92.14-.5.08-.97-.22-1.4-.22-.31-.54-.44-.92-.38-.38.06-.63.28-.75.65-.13.42,0,.84.43,1.07Z" style="fill:#fff; stroke-width:0px;"/><path d="m147.54,64.29s-.03,0,0,0h0Z" style="fill:#fff; stroke-width:0px;"/><path d="m147.55,64.34s0-.01,0-.02c0,0-.01,0-.02,0,0,0,.02.02.02.02Z" style="fill:#fff; stroke-width:0px;"/><path d="m147.57,64.28s-.02,0-.02,0c0,0,.01.01,0,.03.05-.01.05-.05.02-.04Z" style="fill:#fff; stroke-width:0px;"/></svg>