<?xml version="1.0" encoding="UTF-8"?><svg id="Layer_1" xmlns="http://www.w3.org/2000/svg" viewBox="0 0 200 100"><g id="NBA"><path d="m44.47,36.92h-7.38c-.12,0-.21.1-.21.23v14.6l-9.89-14.73c-.04-.06-.1-.09-.17-.09h-9.17c-.12,0-.21.1-.21.23v25.72c0,.13.09.23.21.23h7.38c.12,0,.21-.1.21-.23v-15.01l10.19,15.15c.04.06.1.09.17.09h8.87c.12,0,.21-.1.21-.23v-25.72c0-.13-.09-.23-.21-.23Z" style="fill:#fff; stroke-width:0px;"/><path d="m93.27,59.11l-10.54-22.07c-.04-.08-.11-.12-.19-.12h-5.85c-.08,0-.15.05-.19.12l-7.81,16.46c-.54-1.9-1.91-3.43-3.9-4.29,1.89-1.2,2.92-3.03,2.92-5.2,0-7.1-8.08-7.1-10.74-7.1h-10.71c-.12,0-.21.1-.21.23v25.72c0,.13.09.23.21.23h11.7c2.39,0,4.86-.41,6.85-1.38l-.5,1.05c-.03.07-.03.15,0,.22.04.07.11.11.18.11h8.14c.08,0,.16-.05.19-.13l2.17-5.03h9.1l2.25,5.03c.03.08.11.13.19.13h8.14s-1.41-3.97-1.41-3.97Zm-39.41-15.84h3.04c1.37,0,3,.28,3,1.64,0,1.57-1.92,1.74-2.74,1.74h-3.31v-3.38Zm4.33,13.46h-4.33v-3.72h3.5c2.52,0,3.8.6,3.8,1.77,0,1.81-2.27,1.95-2.97,1.95Zm19.44-5.16l1.83-4.26,1.85,4.26h-3.67Z" style="fill:#fff; stroke-width:0px;"/><path d="m13.33,36.92h-6.13c-1.49,0-2.71,1.22-2.71,2.71v20.74c0,1.49,1.21,2.71,2.71,2.71h6.12c1.49,0,2.71-1.22,2.71-2.71v-20.74c0-1.49-1.22-2.71-2.71-2.71Zm-6.13,25.52c-1.14,0-2.07-.93-2.07-2.07v-20.74c0-1.14.93-2.07,2.07-2.07h3.5c-.67.26-.77.55-.8,1.49-.11.01-.35-.1-.27.47,0,0,.04.38.2.31-.15,1,.02,1.08-1.01,1.12l-.05.07c-1.04.1-1.36-.03-2.23,1.75,0,0-.23.55-.29.78-.22.45-.74,1.45-.89,2.09-.05.22-.15.29-.01.6.2.46-.13.57,1.04.54v.27s-.31.27-.38.43c-.07.16-.25.97-.24,1.35.02,1,.84,1.84,1.08,2.83l.54.08c.31.69,1.63,2.57,1.9,2.81.06.17.4.39.59.6.16.15,1.12,1.2,2.24,1.84,0,0,.18.38.27.67-.37.3.35.85.57,1.75.01.12-.21.24.12.54-.02,1.37-.44,2.09.26,2.47h-6.13Zm8.19-2.07c0,1.04-.75,1.89-1.74,2.05h-.02c.91-.55.35-1.59.17-2.21-.01-.04.02-.08.03-.11.05-.09-.05-.28-.05-.28-.11-.1-.14-.61-.2-.84-.1-.39.17-1.06.17-1.29s-.17-.54-.48-.94c-.08-.09-.3-2.03-.5-2.52-.28-.68-.37-.57-.7-1.38-.26-.57-.06-1.41-.64-3.36,0,0,.13-.12.13-.12,0,0-.46-1.69-.61-2.15-.15-.46-.42-.5-.42-.5,0,0,0-.19.01-.24.02-.08.56-1.49.61-1.53,0-.03.78-.56.8-.49.07.35.37,2.1.5,2.38.13.28.58,1.15.8,1.68-.81.19-1.41.93-1.41,1.8,0,1.02.82,1.85,1.85,1.85.78,0,1.45-.48,1.72-1.16v9.36Zm0-10.72c-.06-.15-.13-.29-.24-.43,0-.28-.3-.27-.38-.38-.08-.09.07-.14-.44-.26-.1-.05-.17-.81-.17-.81-.08-.49-.25-.82-.51-1.34-.13-.26-.19-1.09-.33-1.51.08-1.93-.54-2.49-1.04-2.8-.19-.12-.28-.21-.47-.32v-.09c-.15-.14-.45-.29-.69-.39-.07-.08-.04-.24.01-.3.16-.02.38-.39.56-.77.14,0,.19-.13.23-.21.15-.24.31-.45.1-.59.47-.85.17-1.42-.09-1.44-.1-.21-.28-.35-.6-.46h1.98c1.14,0,2.07.93,2.07,2.07v10.02Z" style="fill:#fff; stroke-width:0px;"/><path d="m7.58,58.08c0,.76.06,1.65.11,2.38l-.56-3.08h-.69v3.76h.44v-1.18c0-.58-.02-1.13-.05-1.83l.56,3.01h.63v-3.76h-.44v.69Z" style="fill:#fff; stroke-width:0px;"/><path d="m10.39,57.38l-.45,3.76h.5l.06-.76h.45l.06.76h.53l-.44-3.76h-.72Zm.15,2.57l.06-.65c.02-.25.08-1.05.11-1.5h.03c.04.46.11,1.24.14,1.5l.06.65h-.39Z" style="fill:#fff; stroke-width:0px;"/><path d="m9.1,57.38h-.73v3.76h.73c.41,0,.68-.23.68-.75v-.55c0-.28-.1-.45-.25-.55.15-.08.25-.26.25-.6v-.56c0-.53-.26-.75-.68-.75Zm.18,3.01c0,.18-.05.27-.22.27h-.19v-1.16h.19c.17,0,.22.07.22.25v.64Zm0-1.57c0,.2-.05.27-.22.27h-.19v-1.24h.19c.17,0,.22.08.22.25v.72Z" style="fill:#fff; stroke-width:0px;"/><path d="m87.47,63.08h24.3c.11,0,.21-.07.23-.18l1.59-7.33c.01-.06,0-.13-.04-.18-.04-.05-.1-.08-.17-.08h-9.58l8.87-5.13c1.8-.92,2.52-1.76,2.86-3.32l1.36-6.26c.25-1.15.1-2.15-.43-2.81-.44-.55-1.11-.84-1.93-.84h-19.11c-1.84,0-3.39,1.44-3.86,3.58l-1.23,4.96c-.01.06,0,.13.04.18.04.05.1.08.16.08h7.94c.11,0,.18-.05.23-.19l.84-2.06h8.56l-.73,2.24-18.85,11.03c-.06.03-.1.09-.12.16,0,0-1.11,4.83-1.26,5.55-.1.49.05.61.31.61Z" style="fill:#fff; stroke-width:0px;"/><path d="m145.19,37.32l-11.91,12.27,6.08,13.15c.07.14,0,.23,0,.23-.05.07-.13.11-.23.11h-2.99s-6.28,0-6.28,0c-.23,0-.44-.13-.54-.33l-4.58-9.06-1.54,8.96c-.04.25-.26.44-.52.44h-9.06c-.08,0-.17,0-.21-.06-.04-.05-.06-.12-.04-.24l5.69-25.65c.02-.11.14-.18.27-.18h8.83c.08,0,.15.03.21.08.05.05.07.12.06.18l-2.13,8.4,8.48-8.59c.05-.04.12-.07.2-.07h10.05c.11,0,.19.03.23.11.05.1,0,.21-.06.27Z" style="fill:#fff; stroke-width:0px;"/><path d="m140.51,63.08h24.3c.11,0,.21-.07.23-.18l1.59-7.33c.01-.06,0-.13-.04-.18-.04-.05-.1-.08-.17-.08h-9.58l8.87-5.13c1.8-.92,2.52-1.76,2.86-3.32l1.36-6.26c.25-1.15.1-2.15-.43-2.81-.44-.55-1.11-.84-1.93-.84h-19.11c-1.84,0-3.39,1.44-3.86,3.58l-1.23,4.96c-.01.06,0,.13.04.18.04.05.1.08.16.08h7.94c.11,0,.18-.05.23-.19l.84-2.06h8.56l-.73,2.24-18.85,11.03c-.06.03-.1.09-.12.16,0,0-1.11,4.83-1.26,5.55-.1.49.05.61.31.61Z" style="fill:#fff; stroke-width:0px;"/><path d="m195.29,51.55s0,0,0,0h-3.47l3.15-14.39v-.03c0-.11-.09-.21-.21-.21h-10.81c-.15,0-.23.04-.31.13-.08.08-15.39,15.1-15.39,15.1l-1.2,5.54c0,.11.09.21.21.21,0,0,0,0,0,0h14.86l-1.06,4.96c0,.11.09.2.21.2h7.86c.1,0,.18-.07.2-.16l1.11-5h3.56c.1,0,.18-.08.19-.17l1.31-5.97c0-.11-.09-.21-.21-.21m-11.76-.07h-5.65l7.24-7.15-1.59,7.15Z" style="fill:#fff; stroke-width:0px;"/></g></svg>