<?xml version="1.0" encoding="UTF-8"?><svg id="Layer_1" xmlns="http://www.w3.org/2000/svg" viewBox="0 0 200 100"><path d="m177.59,49.22l1.28-.2v.2l-.47.07v1.34l-.27.07v-1.34l-.47.07v-.2h-.07Zm1.55-.2l.4-.07.4,1.14h0l.4-1.28.4-.07v1.55l-.27.07v-1.21h0l-.4,1.28-.2.07-.4-1.14h0v1.14l-.27.07v-1.55h-.07Zm-1.55-12.5l-12.16,2.08,8.33,1.34c2.28.4,3.83,2.22,3.83,4.64v.6c0,3.09-2.49,6.05-5.64,6.58l-16.86,2.89,1.88-5.91,12.09-2.08-7.26-1.14c-2.28-.4-3.83-2.22-3.83-4.64v-1.21l-4.84,15.32-6.45,1.07-2.49-7.05-2.49,7.93-6.45,1.07-6.65-18.81,7.39-1.28,2.49,7.05,2.49-7.93,6.45-1.07,2.49,7.05,2.49-7.93,7.39-1.28-.81,2.49c1.01-1.61,2.69-2.82,4.57-3.16l13.97-2.35v5.71h.07Zm-61.74,4.9l-6.52,20.56v-5.11l-10.28,1.75v-14.31l-6.99,1.21h0l-21.83,3.69-1.75,5.44v-5.11l-7.19,1.21v13.37c0,.54-.4,1.01-.94,1.07l-5.58.94c-.54.07-.94-.27-.94-.81v-13.37l-7.19,1.21v16.19c0,2.08,1.68,3.43,3.76,3.09l14.31-2.42c2.08-.34,3.76-2.28,3.76-4.37v-10.55l8.13-1.41v14.31l7.19-1.21v-14.31l6.38-1.07,1.75-5.44v15.72c0,2.08,1.68,3.43,3.76,3.09l13.57-2.28,7.39-1.28,4.77-15.12,2.89,8.2-3.96.67-1.88,5.91,15.05-2.55-6.65-18.81-11.02,1.88Zm-71.08,15.85v12.43c0,2.08-1.68,4.03-3.76,4.37l-14.98,2.55c-2.08.34-3.76-1.01-3.76-3.09v-12.43c0-2.08,1.68-4.03,3.76-4.37l14.98-2.55c2.08-.34,3.76,1.01,3.76,3.09m-7.12,4.03c0-.54-.4-.87-.94-.81l-6.25,1.07c-.54.07-.94.6-.94,1.07v6.85c0,.54.4.87.94.81l6.25-1.07c.54-.07.94-.6.94-1.07v-6.85Zm147.46-17.4l-5.64.94v-1.28l5.64-.94c.67-.13,1.28-.74,1.28-1.48v-15.52c0-.67-.54-1.14-1.28-1.01l-48.97,8.33v-1.28l48.97-8.33c1.34-.2,2.49.67,2.49,2.08v15.59c0,1.34-1.14,2.69-2.49,2.89M20.46,70.78l-5.64.94c-.67.13-1.28-.34-1.28-1.01v-15.59c0-.67.54-1.34,1.28-1.48l46.76-7.99v-1.21l-46.69,7.99c-1.34.2-2.49,1.55-2.49,2.89v15.59c0,1.34,1.14,2.28,2.49,2.08l5.64-.94v-1.28h-.07Zm60.33-32.78l-3.22.54v5.04l-2.69.47v-5.04l-3.56.6c-.07,0-.07.07,0,.13.2.13.6.47.81.6.2.13.47.47.67.74.27.47.27,1.07.13,1.68-.54,1.68-2.15,2.02-2.55,2.08l-6.72,1.14v-2.62l5.71-1.01c.07,0,.13-.07.13-.13s0-.13-.07-.2c0,0-.87-.67-1.14-1.14-.6-.94-.13-2.28.87-3.02.34-.27.81-.47,1.21-.54l10.48-1.81v2.49h-.07Zm5.44-3.36l2.28,7.05-2.82.47-.34-1.01-2.55.47-.34,1.14-2.82.47,2.28-7.86,4.3-.74Zm-1.48,4.57l-.67-1.95-.67,2.15,1.34-.2Zm11.49-1.41l3.36-.54v2.62l-4.7.81c-.27.07-.4,0-.67,0-.13,0-.4-.13-.6-.27-.07-.07-1.61-1.34-1.61-1.34v2.08l-3.02.54v-7.52l4.5-.81c.27-.07.74-.13,1.21-.13,1.28,0,2.08,1.01,2.02,2.28-.07.67-.4,1.21-.94,1.68-.2.13-.34.34-.54.4-.07,0-.07.07,0,.13.27.2.81.13,1.01.07m-2.08-1.88c0-.27-.2-.47-.47-.4l-1.61.27v1.01l1.61-.27c.27-.13.47-.34.47-.6m14.51-5.11l-.6,2.02-.6-1.81-3.02.54-.6,2.02-.6-1.81-3.09.54,2.35,7.05,2.55-.47.87-2.89.87,2.62,2.55-.47,2.35-7.86-3.02.54Zm8.53-1.41l2.28,7.05-2.82.47-.34-1.01-2.55.47-.34,1.14-2.82.47,2.28-7.86,4.3-.74Zm-1.41,4.57l-.67-1.95-.6,2.15,1.28-.2Zm15.79-7.05l4.9-.81v2.42l-3.9.67c-.07,0-.07.07,0,.13.2.13.6.47.81.6s.47.47.67.74c.27.47.27,1.07.13,1.68-.54,1.68-2.15,2.02-2.55,2.08l-5.58.94c-.27.07-.4,0-.67,0-.13,0-.4-.13-.6-.27-.07-.07-1.61-1.34-1.61-1.34v2.08l-3.02.54v-7.52l4.5-.81c.27-.07.74-.13,1.21-.13,1.28,0,2.08,1.01,2.02,2.28-.07.67-.4,1.21-.87,1.68-.2.13-.34.34-.54.4-.07,0-.07.07,0,.13.13.13.94,0,.94,0l3.22-.54c.07,0,.13-.07.13-.13s0-.13-.07-.2c0,0-.87-.67-1.14-1.14-.6-.94-.13-2.28.87-3.02.27-.13.74-.4,1.14-.47m-6.31,3.69c0-.27-.2-.47-.47-.4l-1.61.27v1.01l1.61-.27c.27-.07.47-.34.47-.6" style="fill:#fff; fill-rule:evenodd; stroke-width:0px;"/></svg>