<?xml version="1.0" encoding="UTF-8"?><svg id="Layer_1" xmlns="http://www.w3.org/2000/svg" viewBox="0 0 200 100"><g id="STARFIELD"><rect x="51.47" y="44.81" width="8.62" height="1.6" style="fill:#fff; stroke-width:0px;"/><polygon points="72.74 56.43 71.4 52.9 71.09 52.06 69.3 47.35 67.5 52.07 67.15 52.91 65.83 56.43 63.91 56.43 68.65 44.81 69.99 44.81 74.62 56.43 72.74 56.43" style="fill:#fff; stroke-width:0px;"/><path d="m88.3,56.43l-3.45-4.85h-2.04v4.85h-1.73v-11.62h3.51c.78,0,2.34-.05,3.06.19,1.93.62,2.17,2.37,2.17,3.28s-.31,1.74-.92,2.35c-.64.6-1.42.81-2.02.89l3.59,4.91h-2.17Zm-3.27-6.44c.66,0,1.33-.01,1.77-.1,1.13-.23,1.3-1.13,1.3-1.66,0-.55-.17-1.52-1.32-1.75-.26-.05-.37-.06-1.66-.07h-2.32s0,3.57,0,3.57h2.22Z" style="fill:#fff; stroke-width:0px;"/><polygon points="97.62 56.43 97.62 44.81 105.47 44.81 105.47 46.41 99.32 46.41 99.32 49.41 104.83 49.41 104.83 51.01 99.32 51.01 99.32 56.43 97.62 56.43" style="fill:#fff; stroke-width:0px;"/><rect x="112.54" y="44.81" width="1.73" height="11.62" style="fill:#fff; stroke-width:0px;"/><polygon points="122.62 56.43 122.62 44.81 130.46 44.81 130.46 46.46 124.36 46.46 124.36 49.64 129.88 49.64 129.88 51.3 124.36 51.3 124.36 54.77 130.84 54.77 130.84 56.43 122.62 56.43" style="fill:#fff; stroke-width:0px;"/><polygon points="137.76 56.43 138 54.77 146.3 54.77 146.3 56.43 137.76 56.43" style="fill:#fff; stroke-width:0px;"/><path d="m152.8,56.42v-11.63h3.41c1.14.02,2.12.03,2.94.35,1.8.71,2.96,2.84,2.96,5.43,0,2.13-.76,3.95-2.08,4.98-1.11.86-2.21.86-4.04.86h-3.18Zm3.27-1.63c.7,0,1.87,0,2.5-.29.9-.41,1.8-1.77,1.8-3.88,0-1.86-.75-3.45-1.87-3.94-.54-.23-1.08-.23-2.4-.23h-1.56v8.34h1.53Z" style="fill:#fff; stroke-width:0px;"/><path d="m41.46,56.7c-1.08,0-2.03-.25-2.76-.72-.88-.59-1.5-1.59-1.71-2.77l-.07-.41h1.86l.03.31c.03.32.1.57.2.77.54,1.1,1.89,1.22,2.45,1.22,1.98,0,2.69-1.06,2.69-1.97,0-.64-.29-1.01-.53-1.2-.43-.36-1.02-.51-2.31-.85l-.13-.03c-1.33-.35-3.56-.93-3.56-3.34s2.04-3.2,3.95-3.2c2.52,0,3.84,1.55,4.21,2.88l.12.44h-1.88l-.09-.22c-.06-.17-.16-.39-.31-.59-.45-.62-1.19-.96-2.09-.96-.37,0-2.22.08-2.22,1.6,0,.96.77,1.32,1.59,1.57.11.03.37.1.68.19.75.2,1.34.36,1.55.44,2.27.72,2.75,2.15,2.75,3.22,0,1.8-1.52,3.61-4.43,3.61Z" style="fill:#fff; stroke-width:0px;"/><path d="m97.56,9.21c22.49.05,40.75,18.38,40.7,40.87,0,2.16-.18,4.27-.51,6.35h2.07c.32-2.08.48-4.18.49-6.34.05-23.62-19.12-42.87-42.74-42.92-21.3-.05-39.04,15.54-42.36,35.93h2.08c3.29-19.24,20.11-33.92,40.28-33.88Z" style="fill:#fff; stroke-width:0px;"/><path d="m137.44,58.11c-3.78,18.65-20.32,32.72-40.06,32.68-22.49-.05-40.75-18.38-40.7-40.87,0-1.7.13-3.34.33-4.98h-2.06c-.2,1.65-.31,3.28-.32,4.98-.05,23.62,19.12,42.87,42.74,42.92,20.87.04,38.33-14.93,42.14-34.72h-2.08Z" style="fill:#fff; stroke-width:0px;"/></g></svg>