<svg width="209" height="63" viewBox="0 0 209 63" fill="none" xmlns="http://www.w3.org/2000/svg">
<g id="xbox-logo-texto 1">
<path id="path6965" d="M208.301 50.9124L194.001 31.6206L207.067 14.1072H202.16L191.533 28.3952L180.906 14.1072H176.029L189.064 31.6507L174.794 50.9426H179.702L191.533 34.9665L203.394 50.9426H208.301" fill="white"/>
<path id="path6967" d="M110.882 50.9124L96.6126 31.6206L109.648 14.1072H104.771L94.144 28.3952L83.517 14.1072H78.6099L91.6754 31.6507L77.3757 50.9426H82.2827L94.144 34.9665L105.975 50.9426H110.882" fill="white"/>
<path id="path6969" d="M128.012 47.0541C128.012 47.0541 118.8 47.0541 117.084 47.0541V33.6703C118.77 33.6703 128.012 33.6703 128.012 33.6703C132.166 33.6703 137.103 34.7856 137.103 40.0608C137.103 46.1498 131.383 47.0541 128.012 47.0541ZM117.084 17.9354C118.77 17.9354 128.012 17.9354 128.012 17.9354C130.962 17.9354 135.929 18.6589 135.929 23.7833C135.929 27.6416 133.039 29.9627 128.012 29.9627C128.012 29.9627 118.8 29.9627 117.084 29.9627V17.9354ZM138.037 33.0072C137.254 32.344 136.441 31.8316 135.598 31.4699C138.277 30.023 140.054 27.2799 140.054 24.1148C140.054 21.7636 139.181 14.1072 127.982 14.1072H112.899V29.9928C112.899 29.9928 108.022 29.9928 107.872 29.9928C107.209 30.8368 105.734 32.8565 105.162 33.6703C105.704 33.6703 112.899 33.6703 112.899 33.6703V50.9124H127.982C136.17 50.9124 141.258 46.7828 141.258 40.1512C141.288 37.2574 140.174 34.7856 138.037 33.0072Z" fill="white"/>
<path id="path6971" d="M160.886 47.8378C152.908 47.8378 147.339 41.5378 147.339 32.4947C147.339 23.4517 152.908 17.1517 160.886 17.1517C168.834 17.1517 174.373 23.4517 174.373 32.4947C174.373 41.5077 168.834 47.8378 160.886 47.8378ZM160.886 13.2632C150.41 13.2632 143.124 21.1608 143.124 32.4947C143.124 43.8287 150.41 51.7263 160.886 51.7263C171.302 51.7263 178.588 43.8287 178.588 32.4947C178.588 21.1608 171.302 13.2632 160.886 13.2632Z" fill="white"/>
<g id="g4146">
<path id="path4148" d="M29.0952 62.733C24.2816 62.2733 19.4054 60.539 15.211 57.7948C11.6982 55.4963 10.9052 54.5561 10.9052 52.6686C10.9052 48.8866 15.0579 42.2559 22.1531 34.7059C26.1876 30.4154 31.8011 25.3867 32.4062 25.519C33.5888 25.7837 43.0281 35.0193 46.5617 39.3585C52.1544 46.2399 54.7281 51.8676 53.4204 54.375C52.4256 56.2834 46.2696 60.0097 41.7482 61.4375C38.0197 62.6215 33.1227 63.123 29.0952 62.733ZM6.16815 48.7403C3.25358 44.2548 1.77891 39.8321 1.06244 33.4452C0.825933 31.3348 0.909405 30.1299 1.59805 25.7976C2.45364 20.3998 5.51429 14.1591 9.20097 10.3145C10.773 8.6777 10.9122 8.63591 12.8251 9.28366C15.1484 10.0707 17.6247 11.7841 21.4714 15.2735L23.7182 17.3073L22.4939 18.8187C16.7969 25.8255 10.7939 35.7576 8.5332 41.9007C7.30198 45.2369 6.80811 48.594 7.33676 49.987C7.69152 50.9273 7.36459 50.5791 6.16815 48.7403ZM57.3644 49.4995C57.6496 48.0926 57.2879 45.5016 56.4323 42.8897C54.589 37.2341 48.4051 26.7031 42.729 19.55L40.9413 17.3004L42.875 15.5173C45.4001 13.191 47.153 11.798 49.045 10.6209C50.5406 9.68763 52.6691 8.86576 53.5873 8.86576C54.1507 8.86576 56.1402 10.9344 57.747 13.198C60.2372 16.6944 62.0667 20.943 62.9918 25.3588C63.59 28.2145 63.6387 34.3228 63.0892 37.1645C62.6371 39.4978 61.6771 42.5275 60.745 44.5892C60.0425 46.1284 58.3035 49.1164 57.5383 50.0915C57.1488 50.5791 57.1488 50.5791 57.3644 49.4995ZM29.6099 7.79315C26.9875 6.45587 22.9461 5.02805 20.7132 4.63801C19.9271 4.50568 18.5985 4.42906 17.743 4.47085C15.8996 4.5614 15.9831 4.47085 18.9394 3.07089C21.3949 1.90774 23.4469 1.22517 26.2293 0.640111C29.3595 -0.0215632 35.2373 -0.0285281 38.3188 0.626181C41.6438 1.32964 45.5601 2.79229 47.7651 4.15046L48.419 4.55443L46.9165 4.47782C43.9254 4.32459 39.5709 5.5365 34.8895 7.82101C33.4775 8.51054 32.2532 9.06078 32.1628 9.03988C32.0793 9.02595 30.9246 8.46179 29.6099 7.79315Z" fill="white"/>
</g>
</g>
</svg>
